HIERARCHY
ROOT Hips
{
  OFFSET 1.44925e-005 102.336 -0.101585
  CHANNELS 6 Xposition Yposition Zposition Zrotation Xrotation Yrotation
  JOINT LeftUpLeg
  {
    OFFSET 8.9458 -8.66707 0.101652
    CHANNELS 3 Zrotation Xrotation Yrotation
    JOINT LeftLeg
    {
      OFFSET 0 -44.4227 1.3727
      CHANNELS 3 Zrotation Xrotation Yrotation
      JOINT LeftFoot
      {
        OFFSET -0.253549 -42.0924 -1.46059
        CHANNELS 3 Zrotation Xrotation Yrotation
        JOINT LeftToes
        {
          OFFSET -0.04 -4.41509 8.4991
          CHANNELS 3 Zrotation Xrotation Yrotation
          End Site
          {
            OFFSET 0.08 -0.047448 9.77979
          }
        }
      }
    }
  }
  JOINT Spine
  {
    OFFSET 0 11.8905 0
    CHANNELS 3 Zrotation Xrotation Yrotation
    JOINT Spine1
    {
      OFFSET 0 25.6574 0.127663
      CHANNELS 3 Zrotation Xrotation Yrotation
      JOINT RightShoulder
      {
        OFFSET -8.99 -0.362252 -0.22
        CHANNELS 3 Zrotation Xrotation Yrotation
        JOINT RightArm
        {
          OFFSET -10.2827 -0.00338 0.322123
          CHANNELS 3 Zrotation Xrotation Yrotation
          JOINT RightForeArm
          {
            OFFSET -26.364 0.099144 -1.42434
            CHANNELS 3 Zrotation Xrotation Yrotation
            JOINT RightHand
            {
              OFFSET -22.0324 0.085362 1.02216
              CHANNELS 3 Zrotation Xrotation Yrotation
              End Site
              {
                OFFSET -13.3284 -0.6 1.50291
              }
            }
          }
        }
      }
      JOINT LeftShoulder1
      {
        OFFSET 8.99 -0.362252 -0.22
        CHANNELS 3 Zrotation Xrotation Yrotation
        JOINT LeftArm
        {
          OFFSET 10.2827 -0.00337999 0.322123
          CHANNELS 3 Zrotation Xrotation Yrotation
          JOINT LeftForeArm
          {
            OFFSET 26.2597 0.099144 -1.42434
            CHANNELS 3 Zrotation Xrotation Yrotation
            JOINT LeftHand
            {
              OFFSET 22.0902 0.085362 1.02216
              CHANNELS 3 Zrotation Xrotation Yrotation
              End Site
              {
                OFFSET 13.419 -0.6 1.50291
              }
            }
          }
        }
      }
      JOINT Head
      {
        OFFSET 0 8.73416 0.011341
        CHANNELS 3 Zrotation Xrotation Yrotation
        End Site
        {
          OFFSET -0.29 12.7742 2.51395
        }
      }
    }
  }
  JOINT RightUpLeg
  {
    OFFSET -8.9458 -8.66707 0.101652
    CHANNELS 3 Zrotation Xrotation Yrotation
    JOINT RightLeg
    {
      OFFSET 0 -44.4227 1.3727
      CHANNELS 3 Zrotation Xrotation Yrotation
      JOINT RightFoot
      {
        OFFSET 0.253549 -42.0924 -1.46059
        CHANNELS 3 Zrotation Xrotation Yrotation
        JOINT RightToes
        {
          OFFSET 0.04 -4.41509 8.4991
          CHANNELS 3 Zrotation Xrotation Yrotation
          End Site
          {
            OFFSET -0.08 -0.137448 9.77979
          }
        }
      }
    }
  }
}
MOTION
Frames:	21
Frame Time:	0.0333333
189.413 102.767 4.81841 -5.70623 -0.657135 -91.423 0.643256 6.6083 3.10227 1.1477 8.39196 13.0329 -4.65296 -12.1014 -0.116053 -1.28575e-009 8.75272e-006 -1.47884e-008 -1.51235 6.55044 0.0958441 0.697515 -3.72501 0.0469828 36.8493 1.71875 -0.0430979 41.5444 -21.7303 5.92058 8.48988 41.9213 6.33184 -9.5823 9.43498 0.68092 -44.1137 3.60832 -3.59633 -27.8573 -11.6566 4.63842 -4.0038 34.3533 -15.509 5.82328 9.61819 -0.917488 0.45922 -2.90158 -1.68296 -2.0474 8.12456 -5.68717 -0.444338 9.53531 -9.63949 4.94754 -15.1322 0.108933 0.0462048 0.000530889 0.662642 
189.438 102.767 4.81106 -5.6735 -0.663774 -91.4389 0.630661 6.56486 3.08059 1.15995 8.37787 13.0728 -4.65903 -12.0713 -0.11604 -1.28575e-009 8.75272e-006 -1.47884e-008 -1.52853 6.52106 0.100931 0.666161 -3.68817 0.055261 36.9456 1.71875 -0.0430979 41.4135 -21.7592 5.9309 8.45373 42.1241 6.33334 -9.40579 9.44747 0.636689 -44.1333 3.60832 -3.59633 -27.8316 -11.6865 4.6919 -3.90523 34.3336 -15.616 5.82328 9.61819 -0.917488 1.11775 -2.40287 -1.3673 -2.05079 8.07306 -5.67814 -0.449582 9.52692 -9.63851 4.94847 -15.1126 0.108923 0.0462048 0.000530889 0.662642 
189.486 102.767 4.79536 -5.62965 -0.668717 -91.4877 0.619909 6.52055 3.04441 1.17488 8.31515 13.1476 -4.6706 -12.0332 -0.116023 -1.28575e-009 8.75272e-006 -1.47884e-008 -1.53882 6.52414 0.117513 0.6219 -3.66401 0.0812322 37.0376 1.71875 -0.0430979 41.2881 -21.9336 5.91404 8.30785 42.671 6.38619 -8.98137 9.47133 0.612389 -44.1597 3.60831 -3.59671 -27.8085 -11.6103 4.81114 -3.81241 34.1278 -15.7636 5.82328 9.61819 -0.917488 1.91432 -1.91386 -0.865522 -2.04957 7.95555 -5.65733 -0.461268 9.58851 -9.61202 4.9577 -15.1152 0.108925 0.0462048 0.000530889 0.662642 
189.545 102.767 4.7755 -5.62487 -0.662983 -91.5401 0.624635 6.50433 3.02483 1.18738 8.27038 13.2119 -4.65929 -12.0027 -0.11601 -1.28575e-009 8.75272e-006 -1.47884e-008 -1.5297 6.67663 0.135689 0.56157 -3.78463 0.111044 37.0462 1.71875 -0.0430979 41.2944 -22.1519 5.83505 8.17827 43.1881 6.41603 -8.65929 9.48754 0.616764 -44.1715 3.60661 -3.59524 -27.7807 -11.3793 4.96445 -3.78004 33.8593 -15.8719 5.82328 9.61819 -0.917488 2.23089 -1.87132 -0.554608 -2.03636 7.86585 -5.63398 -0.476221 9.66687 -9.58179 4.98129 -15.1188 0.108926 0.0462048 0.000530889 0.662642 
189.61 102.769 4.75614 -5.66187 -0.636854 -91.5576 0.659246 6.48804 3.04005 1.19778 8.30614 13.2165 -4.63942 -11.9878 -0.116004 -1.28575e-009 8.75272e-006 -1.47884e-008 -1.49153 6.95054 0.126432 0.451644 -4.02604 0.115229 37.0875 1.71875 -0.0439697 41.3171 -22.2404 5.74635 8.19988 43.418 6.32904 -8.69078 9.48818 0.615434 -44.1091 3.59634 -3.58323 -27.7732 -11.1903 5.1001 -3.75496 33.7997 -15.9247 5.82328 9.61819 -0.917488 2.08878 -2.09273 -0.608233 -1.99452 7.85447 -5.59852 -0.481775 9.67945 -9.60458 4.98799 -15.086 0.107993 0.0462048 0.000530889 0.662642 
189.673 102.775 4.74066 -5.70756 -0.594737 -91.5528 0.719457 6.46331 3.08158 1.19972 8.37787 13.1689 -4.6519 -11.9833 -0.116002 -1.28575e-009 8.75272e-006 -1.47884e-008 -1.43523 7.21176 0.087917 0.311496 -4.2428 0.0914484 37.2367 1.71875 -0.0468266 41.2377 -22.1952 5.67947 8.2864 43.4332 6.22404 -8.90871 9.48904 0.579949 -43.9414 3.57572 -3.56826 -27.8434 -11.2157 5.1934 -3.73006 33.9514 -15.9152 5.82328 9.61819 -0.917488 1.85272 -2.18366 -0.848442 -1.93328 7.88771 -5.55634 -0.477273 9.63094 -9.65991 4.9486 -15.0303 0.103559 0.0462048 0.000530889 0.662642 
189.726 102.781 4.7318 -5.73521 -0.555591 -91.5742 0.773108 6.45175 3.12123 1.19155 8.40249 13.1432 -4.6749 -11.97 -0.115996 -1.28575e-009 8.75272e-006 -1.47884e-008 -1.40408 7.38537 0.0633363 0.239265 -4.35502 0.0733595 37.3306 1.71875 -0.0485642 41.1769 -22.179 5.59968 8.26466 43.3776 6.26592 -9.00117 9.48949 0.514646 -43.7807 3.56016 -3.56208 -27.9486 -11.3997 5.24617 -3.79138 34.0662 -15.8091 5.82328 9.61819 -0.917488 1.75333 -2.08242 -0.97606 -1.89768 7.91012 -5.54849 -0.450443 9.57744 -9.64847 4.87694 -14.9848 0.0971485 0.0462048 0.000530889 0.662642 
189.773 102.786 4.7318 -5.73801 -0.527016 -91.6361 0.798736 6.44129 3.13821 1.18526 8.38323 13.1877 -4.65171 -11.9421 -0.115984 -1.28575e-009 8.75272e-006 -1.47884e-008 -1.41503 7.49134 0.0807459 0.283842 -4.38458 0.0824987 37.2128 1.71875 -0.0500213 41.2968 -22.2966 5.52245 8.15149 43.3191 6.39846 -8.89551 9.48976 0.477332 -43.7726 3.56275 -3.56845 -27.9661 -11.5987 5.24262 -3.97198 34.0641 -15.5985 5.82328 9.61819 -0.917488 1.65479 -2.10951 -0.988744 -1.90583 7.89343 -5.58696 -0.396506 9.54604 -9.54341 4.82133 -14.9479 0.0922263 0.0462048 0.000530889 0.662642 
189.83 102.791 4.73962 -5.72473 -0.498963 -91.7088 0.811707 6.39747 3.13912 1.18757 8.38387 13.2648 -4.60688 -11.9155 -0.115973 -1.28575e-009 8.75272e-006 -1.47884e-008 -1.40537 7.57964 0.104111 0.320758 -4.39089 0.0998336 37.0513 1.71875 -0.0512271 41.4748 -22.4646 5.51662 8.10239 43.3308 6.42499 -8.71783 9.49019 0.528232 -43.8389 3.57156 -3.57574 -27.9157 -11.7495 5.18409 -4.1336 34.1434 -15.3948 5.82328 9.61819 -0.917488 1.43567 -2.36804 -1.08563 -1.91896 7.84023 -5.61865 -0.348788 9.53242 -9.43577 4.80537 -14.9017 0.0894676 0.0462048 0.000530889 0.662642 
189.896 102.795 4.75152 -5.71185 -0.469913 -91.7758 0.827265 6.33254 3.14008 1.18814 8.41505 13.3274 -4.61293 -11.898 -0.115965 -1.28575e-009 8.75272e-006 -1.47884e-008 -1.30885 7.70794 0.0838936 0.188234 -4.47033 0.100023 37.1212 1.71875 -0.0522109 41.4568 -22.5299 5.54135 8.14076 43.4398 6.34574 -8.57679 9.48941 0.657146 -43.7405 3.55971 -3.56734 -27.9745 -11.8503 5.13992 -4.11061 34.4477 -15.3482 5.82328 9.61819 -0.917488 1.36997 -2.43547 -1.20201 -1.91125 7.76904 -5.60826 -0.339302 9.54148 -9.38019 4.80338 -14.8568 0.0877878 0.0462048 0.000530889 0.662642 
189.958 102.799 4.76559 -5.69494 -0.453308 -91.8539 0.830013 6.27456 3.13528 1.18117 8.4319 13.4038 -4.64934 -11.8753 -0.115956 -1.28575e-009 8.75272e-006 -1.47884e-008 -1.18032 7.90429 0.0340638 -0.0445249 -4.69934 0.0857414 37.3506 1.71875 -0.053002 41.2794 -22.473 5.47172 8.13952 43.5398 6.35023 -8.52533 9.48313 0.794944 -43.4668 3.52783 -3.54593 -28.1711 -11.9283 5.16622 -3.93816 34.8697 -15.4421 5.82328 9.61819 -0.917488 1.73973 -1.99766 -1.04551 -1.91097 7.68067 -5.5889 -0.350601 9.57949 -9.32172 4.78876 -14.8318 0.0863037 0.0462048 0.000530889 0.662642 
190.016 102.806 4.78218 -5.63844 -0.447538 -91.9497 0.813846 6.19292 3.11264 1.17466 8.42053 13.5299 -4.63589 -11.8363 -0.115018 -1.28575e-009 8.75272e-006 -1.47884e-008 -1.16214 8.10117 0.0120455 -0.102521 -4.99763 0.0699542 37.4115 1.71875 -0.0536295 41.2223 -22.4145 5.32381 8.06421 43.4945 6.47478 -8.60318 9.47391 0.872057 -43.3111 3.51038 -3.53498 -28.2872 -12.0546 5.204 -3.83381 35.2183 -15.4748 5.82328 9.61819 -0.917488 2.22428 -1.43189 -0.680495 -1.92784 7.55065 -5.57424 -0.359023 9.61476 -9.23684 4.77337 -14.8043 0.0848072 0.0462048 0.000530889 0.662642 
190.076 102.816 4.80091 -5.52975 -0.429852 -92.0398 0.812628 6.0533 3.09292 1.16553 8.40521 13.6506 -4.59036 -11.7901 -0.112042 -1.28575e-009 8.75272e-006 -1.47884e-008 -1.30737 8.19027 0.0329475 0.142431 -5.17848 0.0478548 37.2363 1.71875 -0.0541228 41.3498 -22.4152 5.26175 8.05985 43.2544 6.52092 -8.80264 9.4631 0.872186 -43.4396 3.527 -3.54843 -28.1884 -12.2688 5.16242 -3.92654 35.412 -15.3197 5.82328 9.61819 -0.917488 2.26671 -1.25881 -0.567304 -1.91464 7.38647 -5.5134 -0.385094 9.59454 -9.20278 4.77463 -14.7359 0.0833141 0.0462048 0.000530889 0.662642 
190.132 102.828 4.82189 -5.41316 -0.395985 -92.1026 0.845792 5.90085 3.10509 1.13739 8.38913 13.6902 -4.59631 -11.7474 -0.110242 -1.28575e-009 8.75272e-006 -1.47884e-008 -1.51705 8.1521 0.0542354 0.506744 -5.17487 0.00691344 37.0961 1.71875 -0.054511 41.4321 -22.4001 5.36177 8.23362 42.8904 6.35559 -9.02961 9.45085 0.870933 -43.6645 3.55607 -3.57181 -28.0139 -12.4755 5.05553 -4.10894 35.4514 -15.0983 5.82328 9.61819 -0.917488 1.8917 -1.39628 -0.891565 -1.85711 7.2431 -5.39912 -0.442694 9.51919 -9.24845 4.7813 -14.6376 0.0818598 0.0462048 0.000530889 0.662642 
190.18 102.837 4.84776 -5.32658 -0.373911 -92.1461 0.871882 5.78802 3.12528 1.09784 8.36104 13.6879 -4.63553 -11.7065 -0.108622 -1.28575e-009 8.75272e-006 -1.47884e-008 -1.66979 8.05459 0.04709 0.750723 -5.08603 -0.042469 37.1473 1.71875 -0.0548235 41.3532 -22.3437 5.5369 8.47792 42.617 6.08928 -9.16206 9.43905 0.936664 -43.7749 3.57022 -3.58283 -27.9174 -12.5164 4.94631 -4.20088 35.3548 -15.0157 5.82328 9.61819 -0.917488 1.54764 -1.55527 -1.28723 -1.82182 7.13244 -5.31509 -0.490628 9.4653 -9.27815 4.78338 -14.565 0.0804955 0.0462048 0.000530889 0.662642 
190.226 102.842 4.87928 -5.25326 -0.380752 -92.1931 0.846057 5.69101 3.10056 1.08079 8.33608 13.75 -4.62153 -11.6666 -0.107187 -1.28575e-009 8.75272e-006 -1.47884e-008 -1.7348 7.97502 0.0319273 0.839159 -5.03018 -0.0723185 37.2213 1.71875 -0.0550895 41.293 -22.3663 5.68097 8.59225 42.6374 5.91989 -9.17515 9.43933 0.922168 -43.8099 3.57176 -3.58089 -27.8663 -12.3487 4.8397 -4.14548 35.1688 -15.129 5.82328 9.61819 -0.917488 1.26143 -1.94004 -1.42812 -1.85364 7.00048 -5.30866 -0.49754 9.49443 -9.22267 4.79465 -14.5435 0.07926 0.0462048 0.000530889 0.662642 
190.273 102.845 4.91247 -5.1857 -0.397167 -92.2525 0.788738 5.5958 3.03671 1.09401 8.32934 13.8837 -4.56994 -11.6372 -0.105945 -1.28575e-009 8.75272e-006 -1.47884e-008 -1.73983 7.98778 0.0295983 0.862339 -5.06492 -0.0764528 37.1529 1.71875 -0.0553381 41.4032 -22.4841 5.74225 8.51041 42.8059 5.95523 -9.18331 9.46142 0.604891 -43.8535 3.57458 -3.57953 -27.8166 -12.0848 4.73064 -4.00541 34.9424 -15.3491 5.82328 9.61819 -0.917488 0.744704 -2.72099 -1.44485 -1.90659 6.85257 -5.32471 -0.497085 9.56662 -9.13672 4.81527 -14.5418 0.0781714 0.0462048 0.000530889 0.662642 
190.309 102.847 4.94429 -5.16748 -0.399711 -92.3138 0.750765 5.56519 2.99834 1.1025 8.32132 13.9915 -4.57007 -11.6256 -0.104904 -1.28575e-009 8.75272e-006 -1.47884e-008 -1.70801 8.112 0.0260769 0.854066 -5.16416 -0.0768211 37.0478 1.71875 -0.0555988 41.5596 -22.4641 5.72083 8.36104 42.7143 6.16456 -9.30687 9.4854 0.180517 -43.8479 3.5727 -3.57642 -27.8291 -11.8523 4.64695 -3.8687 34.6811 -15.5683 5.82328 9.61819 -0.917488 0.267113 -3.29509 -1.48945 -1.92982 6.78625 -5.3197 -0.520186 9.59573 -9.07856 4.81883 -14.5255 0.0772477 0.0462048 0.000530889 0.662642 
190.327 102.849 4.97601 -5.2077 -0.393388 -92.3668 0.738786 5.61314 3.00902 1.08365 8.30222 14.0324 -4.61502 -11.6266 -0.104069 -1.28575e-009 8.75272e-006 -1.47884e-008 -1.65565 8.22589 0.00707769 0.797864 -5.20515 -0.0873445 37.0903 1.71875 -0.0559006 41.5718 -22.1543 5.69351 8.30495 42.2718 6.40274 -9.52589 9.47442 0.185109 -43.7631 3.56208 -3.56858 -27.8927 -11.6816 4.56362 -3.80541 34.4108 -15.7056 5.82328 9.61819 -0.917488 0.383995 -3.08851 -1.44977 -1.94418 6.81889 -5.32514 -0.54027 9.57772 -9.01803 4.80267 -14.5008 0.0765214 0.0462048 0.000530889 0.662642 
190.345 102.849 5.00856 -5.23441 -0.392298 -92.4133 0.723097 5.63426 3.01954 1.06126 8.30448 14.0697 -4.6182 -11.6307 -0.103441 -1.28575e-009 8.75272e-006 -1.47884e-008 -1.58912 8.20753 -0.0145749 0.69845 -5.1317 -0.0925562 37.2719 1.71875 -0.056273 41.4402 -21.7669 5.73071 8.35238 41.8167 6.53353 -9.7525 9.42938 0.636077 -43.6845 3.54852 -3.55374 -27.8979 -11.5976 4.41359 -3.82761 34.3045 -15.7109 5.82328 9.61819 -0.917488 0.783508 -2.67344 -1.3841 -1.97795 6.82434 -5.35095 -0.537617 9.58823 -8.93224 4.80107 -14.4906 0.0760307 0.0462048 0.000530889 0.662642 
190.371 102.849 5.0424 -5.20236 -0.396097 -92.4536 0.68952 5.56656 2.98958 1.06376 8.34392 14.1466 -4.56534 -11.637 -0.103025 -1.28575e-009 8.75272e-006 -1.47884e-008 -1.5114 8.16169 -0.0281742 0.595131 -5.12187 -0.0884629 37.4304 1.71915 -0.0569839 41.2917 -21.5908 5.75658 8.4043 41.5927 6.5503 -9.9987 9.39999 0.850421 -43.6396 3.53855 -3.5408 -27.8521 -11.7293 4.24798 -3.85874 34.5777 -15.6097 5.82328 9.61819 -0.917488 0.633276 -2.89567 -1.559 -2.01058 6.7302 -5.35091 -0.54551 9.66073 -8.87223 4.82908 -14.5001 0.0758075 0.0462048 0.000530889 0.662642 
